<?xml version="1.0" standalone="no"?>
<!DOCTYPE svg PUBLIC "-//W3C//DTD SVG 20010904//EN"
 "http://www.w3.org/TR/2001/REC-SVG-20010904/DTD/svg10.dtd">
<svg version="1.0" xmlns="http://www.w3.org/2000/svg"
 width="947.000000pt" height="947.000000pt" viewBox="0 0 947.000000 947.000000"
 preserveAspectRatio="xMidYMid meet">
<metadata>
Created by potrace 1.14, written by Peter Selinger 2001-2017
</metadata>
<g transform="translate(0.000000,947.000000) scale(0.100000,-0.100000)"
fill="#000000" stroke="none">
<path d="M4499 9466 c-2 -2 -44 -6 -94 -10 -110 -7 -243 -25 -395 -51 -25 -4
-198 -41 -235 -50 -135 -32 -447 -131 -520 -165 -11 -5 -60 -26 -110 -46 -115
-48 -307 -144 -403 -200 -40 -24 -76 -44 -78 -44 -11 0 -249 -161 -349 -236
-735 -550 -1272 -1355 -1490 -2234 -96 -388 -125 -640 -120 -1050 2 -146 6
-274 8 -285 3 -11 8 -51 11 -90 4 -38 9 -83 11 -100 12 -76 15 -93 21 -130 32
-218 147 -637 217 -798 8 -17 31 -72 52 -122 64 -156 167 -356 272 -529 336
-554 842 -1047 1413 -1376 83 -48 90 -55 69 -61 -13 -4 -112 -31 -219 -59
-222 -58 -229 -61 -480 -142 -246 -80 -472 -162 -655 -238 -82 -34 -164 -66
-181 -72 l-30 -10 8 -57 c4 -31 10 -72 13 -91 2 -19 6 -48 9 -65 8 -56 46
-330 51 -370 3 -22 8 -51 10 -65 3 -14 7 -45 10 -70 3 -25 7 -56 10 -70 2 -14
7 -45 10 -70 4 -25 13 -90 21 -145 8 -55 17 -120 20 -145 3 -25 7 -52 9 -60 2
-8 7 -40 10 -70 3 -30 8 -62 11 -71 4 -13 47 5 227 95 122 61 251 124 287 140
456 202 826 332 1255 441 138 35 267 66 287 69 21 3 57 10 80 15 24 5 61 12
83 15 22 4 63 10 90 16 28 5 70 12 95 15 25 3 59 8 75 10 110 16 305 35 419
43 226 14 744 7 921 -13 22 -2 65 -7 95 -10 245 -24 530 -75 840 -150 275 -67
790 -246 1048 -366 35 -16 65 -29 67 -29 16 0 526 -259 582 -295 26 -17 29
-12 38 70 3 27 7 57 9 65 4 14 9 47 22 150 2 19 6 46 9 60 2 14 7 45 10 70 3
25 10 70 15 100 5 30 12 75 15 100 3 25 7 56 10 70 3 14 7 45 10 70 3 25 10
70 15 100 5 30 12 78 15 105 3 28 8 61 11 75 9 49 44 295 44 311 0 16 -102 64
-325 152 -362 142 -800 285 -1095 355 l-35 8 78 45 c115 65 359 225 462 304
565 430 1009 1004 1283 1660 73 175 180 501 198 604 3 14 11 51 19 81 15 59
60 332 69 415 17 160 21 243 21 455 -1 211 -9 409 -20 450 -2 8 -6 42 -10 75
-3 33 -18 121 -31 195 -121 658 -396 1262 -813 1790 -41 52 -80 100 -86 106
-5 6 -42 47 -81 90 -392 434 -877 778 -1420 1007 -125 53 -351 133 -444 158
-25 7 -49 14 -55 15 -170 48 -442 100 -615 119 -30 3 -71 8 -90 11 -40 5 -586
15 -591 10z"/>
</g>
</svg>
